# xmcd
#
# Track frame offsets:
#	150
#	15187
#	27974
#	43466
#	56001
#	73867
#	86635
#	102397
#	117470
#	132478
#	150487
#	163387
#	184406
#	199263
#
# Disc length: 2724 seconds
# Revision: 0
# Processed by: cddbd v1.5.2PL0 Copyright (c) Steve Scherf et al.
# Submitted via: dBpowerAMP V12.0
#
DISCID=ce0aa20e
DTITLE=Amar Sundy - Sadaka
DYEAR=2009
DGENRE=Blues
TTITLE0=L'Halem
TTITLE1=Litali
TTITLE2=Sahraoui
TTITLE3=Sadaka
TTITLE4=El Hathab
TTITLE5=Lina
TTITLE6=El Hamama
TTITLE7=Seghia
TTITLE8=Debhia
TTITLE9=Prisoner of Misery
TTITLE10=Camel Shuffle
TTITLE11=Mem'na
TTITLE12=Hany Jai
TTITLE13=Iwa
EXTD=
EXTT0=
EXTT1=
EXTT2=
EXTT3=
EXTT4=
EXTT5=
EXTT6=
EXTT7=
EXTT8=
EXTT9=
EXTT10=
EXTT11=
EXTT12=
EXTT13=
PLAYORDER=
